<svg xmlns="http://www.w3.org/2000/svg" xmlns:xlink="http://www.w3.org/1999/xlink" xmlns:serif="http://www.serif.com/" width="100%" height="100%" viewBox="0 0 1671 392" xml:space="preserve" style="fill-rule:evenodd;clip-rule:evenodd;stroke-linejoin:round;stroke-miterlimit:2;">    <g transform="matrix(4.16667,0,0,4.16667,0,0)">        <rect x="112.356" y="2.311" width="22.072" height="90.176" style="fill:rgb(35,31,32);fill-rule:nonzero;"></rect>        <path d="M160.532,64.362C160.532,64.362 170.749,73.695 182.1,73.695C186.64,73.695 191.558,71.929 191.558,66.506C191.558,55.786 150.948,56.165 150.948,28.417C150.948,11.77 164.946,0.797 182.856,0.797C202.279,0.797 211.864,11.013 211.864,11.013L202.53,29.048C202.53,29.048 193.45,21.103 182.604,21.103C178.063,21.103 173.019,23.121 173.019,28.166C173.019,39.516 213.631,37.499 213.631,66.001C213.631,81.01 202.152,94 181.847,94C160.659,94 148.93,81.136 148.93,81.136L160.532,64.362Z" style="fill:rgb(35,31,32);fill-rule:nonzero;"></path>        <path d="M233.429,2.311L257.392,2.311L270.507,40.399C272.526,46.2 275.049,55.281 275.049,55.281L275.301,55.281C275.301,55.281 277.824,46.2 279.842,40.399L292.958,2.311L316.921,2.311L324.235,92.487L302.165,92.487L299.391,51.875C298.885,45.065 299.391,36.741 299.391,36.741L299.137,36.741C299.137,36.741 296.111,46.2 294.094,51.875L284.633,77.983L265.716,77.983L256.256,51.875C254.239,46.2 251.212,36.741 251.212,36.741L250.96,36.741C250.96,36.741 251.464,45.065 250.96,51.875L248.186,92.487L225.988,92.487L233.429,2.311Z" style="fill:rgb(35,31,32);fill-rule:nonzero;"></path>        <path d="M342.65,2.311L399.151,2.311L399.151,21.228L364.721,21.228L364.721,37.624L392.215,37.624L392.215,56.542L364.721,56.542L364.721,73.569L400.917,73.569L400.917,92.487L342.65,92.487L342.65,2.311Z" style="fill:rgb(35,31,32);fill-rule:nonzero;"></path>        <path d="M3.735,66.059L20.249,66.059C19.161,61.204 18.485,55.977 18.297,50.512L0,50.512C0.359,56.008 1.653,61.245 3.735,66.059Z" style="fill:rgb(36,167,74);fill-rule:nonzero;"></path>        <path d="M21.932,22.513C24.718,13.803 28.918,6.722 33.977,2.28C22.675,5.421 13.105,12.756 7.007,22.513L21.932,22.513Z" style="fill:rgb(36,167,74);fill-rule:nonzero;"></path>        <path d="M21.932,72.284L7.007,72.284C13.105,82.041 22.675,89.375 33.977,92.517C28.918,88.074 24.718,80.993 21.932,72.284Z" style="fill:rgb(36,167,74);fill-rule:nonzero;"></path>        <path d="M0,44.288L18.297,44.288C18.485,38.821 19.161,33.593 20.249,28.737L3.735,28.737C1.653,33.553 0.358,38.791 0,44.288Z" style="fill:rgb(36,167,74);fill-rule:nonzero;"></path>        <path d="M88.994,66.059C91.075,61.245 92.37,56.008 92.728,50.512L74.43,50.512C74.244,55.977 73.567,61.204 72.479,66.059L88.994,66.059Z" style="fill:rgb(36,167,74);fill-rule:nonzero;"></path>        <path d="M70.796,22.513L85.721,22.513C79.624,12.756 70.053,5.421 58.751,2.28C63.809,6.722 68.009,13.803 70.796,22.513Z" style="fill:rgb(36,167,74);fill-rule:nonzero;"></path>        <path d="M70.796,72.284C68.009,80.993 63.809,88.074 58.751,92.517C70.053,89.375 79.624,82.041 85.721,72.284L70.796,72.284Z" style="fill:rgb(36,167,74);fill-rule:nonzero;"></path>        <path d="M74.43,44.288L92.728,44.288C92.37,38.791 91.076,33.553 88.994,28.737L72.479,28.737C73.568,33.593 74.244,38.821 74.43,44.288Z" style="fill:rgb(36,167,74);fill-rule:nonzero;"></path>        <path d="M43.252,72.284L28.464,72.284C31.869,81.801 37.157,88.477 43.252,90.167L43.252,72.284Z" style="fill:rgb(36,167,74);fill-rule:nonzero;"></path>        <path d="M49.476,72.284L49.476,90.134C55.519,88.387 60.758,81.737 64.14,72.284L49.476,72.284Z" style="fill:rgb(36,167,74);fill-rule:nonzero;"></path>        <path d="M43.252,50.512L24.508,50.512C24.717,56.048 25.445,61.297 26.604,66.059L43.252,66.059L43.252,50.512Z" style="fill:rgb(36,167,74);fill-rule:nonzero;"></path>        <path d="M49.476,50.512L49.476,66.059L66.001,66.059C67.16,61.297 67.887,56.048 68.097,50.512L49.476,50.512Z" style="fill:rgb(36,167,74);fill-rule:nonzero;"></path>        <path d="M49.476,44.288L68.111,44.288C67.924,38.756 67.218,33.509 66.085,28.737L49.476,28.737L49.476,44.288Z" style="fill:rgb(36,167,74);fill-rule:nonzero;"></path>        <path d="M43.252,28.737L26.52,28.737C25.386,33.509 24.68,38.756 24.494,44.288L43.252,44.288L43.252,28.737Z" style="fill:rgb(36,167,74);fill-rule:nonzero;"></path>        <path d="M49.476,22.513L64.27,22.513C60.894,12.867 55.597,6.069 49.476,4.301L49.476,22.513Z" style="fill:rgb(36,167,74);fill-rule:nonzero;"></path>        <path d="M43.252,4.267C37.08,5.979 31.734,12.802 28.335,22.513L43.252,22.513L43.252,4.267Z" style="fill:rgb(36,167,74);fill-rule:nonzero;"></path>    </g></svg>